<?xml version="1.0" standalone="no"?><svg xmlns="http://www.w3.org/2000/svg" viewBox="0 0 1440 320"><path fill="#0099ff" fill-opacity="1" d="M0,192L24,170.7C48,149,96,107,144,101.3C192,96,240,128,288,144C336,160,384,160,432,138.7C480,117,528,75,576,53.3C624,32,672,32,720,74.7C768,117,816,203,864,224C912,245,960,203,1008,208C1056,213,1104,267,1152,261.3C1200,256,1248,192,1296,144C1344,96,1392,64,1416,48L1440,32L1440,320L1416,320C1392,320,1344,320,1296,320C1248,320,1200,320,1152,320C1104,320,1056,320,1008,320C960,320,912,320,864,320C816,320,768,320,720,320C672,320,624,320,576,320C528,320,480,320,432,320C384,320,336,320,288,320C240,320,192,320,144,320C96,320,48,320,24,320L0,320Z"></path></svg>